<svg width="788" height="520" viewBox="0 0 788 520" fill="none" xmlns="http://www.w3.org/2000/svg">
<path opacity="0.15" d="M659.158 499.862H472.875C471.818 499.863 470.772 499.657 469.795 499.254C468.818 498.851 467.931 498.259 467.183 497.512C466.435 496.766 465.842 495.879 465.437 494.903C465.033 493.927 464.824 492.881 464.824 491.825C464.828 489.692 465.678 487.648 467.187 486.141C468.696 484.634 470.742 483.788 472.875 483.788H659.158C661.29 483.788 663.334 484.634 664.841 486.142C666.349 487.649 667.195 489.693 667.195 491.825C667.195 493.956 666.349 496 664.841 497.508C663.334 499.015 661.29 499.862 659.158 499.862Z" fill="#292929"/>
<path opacity="0.15" d="M440.7 501.212H399.164C396.202 501.212 393.802 503.613 393.802 506.575C393.802 509.537 396.202 511.938 399.164 511.938H440.7C443.662 511.938 446.062 509.537 446.062 506.575C446.062 503.613 443.662 501.212 440.7 501.212Z" fill="#292929"/>
<path d="M692.793 417.909C686.407 404.895 683.284 390.522 683.692 376.032C683.897 368.991 684.934 361.923 684.047 354.923C682.178 340.118 671.452 327.278 658.039 320.728C644.626 314.178 628.934 313.373 614.279 316.225C590.537 320.837 571.488 335.683 569.25 360.763C567.968 375.145 570.738 389.65 569.469 404.032C569.158 407.562 568.523 411.056 567.572 414.47L560.395 414.989L505.95 418.905C493.984 419.778 481.908 420.065 473.434 429.207C464.402 438.98 458.578 451.285 456.746 464.466C455.381 474.372 456.896 485.602 464.401 492.193C465.014 492.728 465.656 493.229 466.325 493.694H648.501C661.072 493.807 673.28 489.488 682.983 481.495C683.569 481.004 684.142 480.513 684.702 479.994C702.809 463.511 702.932 438.499 692.793 417.909Z" fill="white" stroke="#18216D" stroke-miterlimit="10"/>
<path d="M591.397 402.858C586.921 398.56 582.118 394.548 577.902 389.991C572.58 384.233 569.565 377.355 566.331 370.287C562.878 362.728 560.122 354.623 560.34 346.204C560.85 335.525 565.535 325.474 573.385 318.217C577.806 314.015 584.588 310.44 585.557 304.095C586.498 297.968 585.024 291.023 588.709 285.578C593.921 277.841 608.412 285.032 612.874 290.245C618.728 297.067 618.087 308.42 626.137 313.551C629.18 315.488 632.96 315.939 636.276 317.221C639.44 318.456 642.267 320.423 644.525 322.961C646.783 325.498 648.408 328.535 649.266 331.822C650.821 337.976 650.767 344.553 655.488 349.328C660.455 354.35 665.04 358.648 667.7 365.498C669.551 370.812 670.675 376.352 671.043 381.968C672.231 395.408 662.543 407.156 651.108 413.515C642.318 418.322 632.291 420.389 622.317 419.451C614.02 418.7 603.213 416.408 597.892 409.804C595.877 407.352 593.708 405.032 591.397 402.858Z" fill="#18216D"/>
<path d="M576.523 358.552C573.649 366.698 568.653 373.93 562.053 379.502C555.452 385.073 547.484 388.784 538.972 390.25C540.821 393.688 542.198 397.36 543.065 401.166C554.745 401.316 566.958 398.055 575.268 389.854C583.578 381.654 586.88 367.886 580.958 357.816C580.235 356.547 576.987 357.202 576.523 358.552Z" fill="white" stroke="#18216D" stroke-miterlimit="10"/>
<path d="M570.233 351.771C572.198 346.449 575.691 341.264 578.229 336.406L582.595 327.96C583.564 326.091 584.724 322.065 586.894 321.247C588.654 320.592 590.742 322.106 592.352 322.693C594.699 323.539 597.128 324.18 599.488 325.013C604.168 326.691 608.835 328.861 612.26 332.572C614.12 334.463 615.573 336.714 616.53 339.188C617.488 341.661 617.929 344.304 617.827 346.954C617.595 350.011 616.272 352.876 615.562 355.864C614.857 359.384 614.614 362.98 614.839 366.562C615.109 377.602 615.96 388.62 617.391 399.57C617.81 401.469 617.725 403.445 617.145 405.301C615.262 409.776 603.391 408.63 599.161 409.012C592.406 409.613 584.629 411.223 578.256 408.153C577.408 401.176 577.003 394.153 577.042 387.125C577.042 381.272 578.693 375.363 574.995 370.328C571.761 365.948 567.995 362.046 569.005 356.192C569.277 354.683 569.688 353.203 570.233 351.771Z" fill="#005FEC"/>
<path d="M584.997 319.022C585.153 317.206 585.153 315.38 584.997 313.564C584.833 312.077 583.755 311.463 582.636 310.535C577.847 306.605 576.891 300.41 578.406 294.679C578.597 294.072 578.72 293.445 578.775 292.81C578.782 292.216 578.741 291.623 578.652 291.036C578.415 288.782 579.001 286.519 580.303 284.664C583.223 280.72 590.209 280.475 594.098 283.013C599.392 286.438 600.116 293.752 600.307 300.056C600.457 304.968 600.593 309.867 600.743 314.779C600.893 320.046 601.316 326.677 595.817 329.461C593.892 330.416 591.684 330.634 589.609 330.075C588.372 329.773 587.248 329.119 586.375 328.192C584.301 325.804 584.847 321.942 584.997 319.022Z" fill="white" stroke="#18216D" stroke-miterlimit="10"/>
<path d="M598.096 307.874C595.187 310.665 591.403 312.367 587.385 312.691C590.996 313.734 594.806 313.893 598.492 313.155C598.238 311.406 598.105 309.642 598.096 307.874Z" fill="#18216D"/>
<path d="M453.376 485.22L461.113 477.252C463.994 474.462 466.616 471.415 468.945 468.15C470.842 465.296 472.287 462.166 473.23 458.872C474.062 455.952 474.444 452.663 472.984 450.016C472.068 448.571 470.758 447.418 469.208 446.693C467.659 445.968 465.934 445.7 464.238 445.922C460.848 446.437 457.692 447.959 455.177 450.289C449.419 455.146 445.844 461.341 442.46 467.918C438.612 475.396 434.614 482.796 430.466 490.119C429.661 491.483 427.737 494.213 428.01 495.877C428.283 497.542 430.739 498.156 432.595 498.32C436.866 498.715 440.959 497.979 444.016 494.84C447.072 491.702 450.252 488.495 453.376 485.22Z" fill="#005FEC"/>
<path d="M431.667 487.308C431.32 487.082 430.931 486.928 430.523 486.855C430.115 486.782 429.696 486.792 429.292 486.885C428.537 487.106 427.833 487.472 427.218 487.963C421.284 492.055 414.68 495.079 407.706 496.901C404.24 497.801 400.433 498.565 398.154 501.294C396.353 503.423 398.031 505.388 400.133 506.357C403.431 507.606 407.011 507.918 410.476 507.257C418.813 505.961 427.15 508.185 435.501 507.257C441.778 506.561 443.538 501.908 445.23 496.45C445.489 495.618 445.803 494.786 446.035 493.953C444.029 493.162 441.396 493.489 439.212 492.684C437.324 492.038 435.601 490.985 434.164 489.6C433.418 488.747 432.58 487.979 431.667 487.308Z" fill="#18216D"/>
<path d="M618.646 406.843C617.855 403.568 616.681 400.197 614.239 398.082C611.796 395.967 607.784 395.64 605.765 398.219C605.069 399.092 604.673 400.197 603.977 401.071C601.89 403.663 596.65 401.917 593.935 401.849C589.705 401.739 585.475 401.985 581.258 402.272C570.97 402.954 560.695 403.854 550.42 404.755L521.643 407.279C516.758 407.702 511.859 408.33 506.96 408.644C502.73 408.876 499.251 407.893 495.089 409.845C491.677 411.656 488.524 413.919 485.715 416.572C481.335 420.324 476.9 424.008 472.561 427.815C470.078 429.985 467.635 432.195 465.247 434.474C458.575 440.86 452.434 447.778 446.294 454.669C441.136 460.491 435.969 466.308 430.793 472.121C440.516 479.888 449.715 488.289 458.329 497.269C459.898 495.905 461.413 494.158 462.423 493.175C464.715 491.129 466.926 489.014 469.081 486.844C470.248 485.812 471.151 484.516 471.715 483.064C472.056 481.891 471.947 480.622 472.22 479.421C473.066 475.505 477.282 473.54 480.325 470.948C484.705 467.209 485.374 461.969 488.185 457.302C490.682 453.127 495.771 451.299 499.196 447.846C502.389 444.612 503.972 440.123 506.701 436.48C508.925 433.505 514.397 429.371 518.149 432.127C521.138 434.31 520.701 439.304 524.303 441.106C526.773 442.334 529.761 442.265 532.395 442.729C541.455 444.339 550.625 445.24 559.767 446.141L575.391 447.669C584.069 448.515 592.979 449.347 601.385 446.85C604.877 445.878 608.138 444.211 610.97 441.948C613.803 439.686 616.149 436.874 617.868 433.683C618.668 432.071 619.263 430.366 619.642 428.607C621.293 421.634 620.202 413.365 618.646 406.843Z" fill="white" stroke="#18216D" stroke-miterlimit="10"/>
<path d="M626.751 345.221C636.944 350.898 638.54 363.41 638.868 374.517C639.032 380.235 638.704 386.088 636.562 391.383C630.804 405.574 613.365 409.121 599.72 408.671C582.143 408.066 564.798 404.471 548.428 398.042C548.328 395.056 548.668 392.072 549.438 389.186C559.829 391.927 570.525 393.348 581.272 393.416C589.052 393.685 596.82 392.614 604.237 390.25C608.917 388.613 613.529 385.938 615.576 381.777C619.246 374.313 613.12 366.303 612.246 358.866C611.742 356.279 611.859 353.609 612.587 351.075C613.019 350.021 613.568 349.018 614.225 348.087C615.06 346.615 616.211 345.348 617.595 344.375C618.694 343.803 619.91 343.495 621.149 343.473C622.387 343.452 623.614 343.719 624.732 344.252C625.424 344.534 626.098 344.858 626.751 345.221Z" fill="white" stroke="#18216D" stroke-miterlimit="10"/>
<path d="M494.953 407.402H566.767C567.245 407.394 567.714 407.267 568.132 407.034C570.11 405.901 569.128 403.377 566.767 403.377H494.953C494.474 403.382 494.004 403.509 493.588 403.745C491.569 404.864 492.537 407.402 494.953 407.402Z" fill="#18216D"/>
<path d="M494.462 407.58H562.606C562.795 407.577 562.981 407.524 563.142 407.425C563.304 407.326 563.436 407.185 563.524 407.017C563.612 406.849 563.653 406.661 563.643 406.472C563.632 406.282 563.571 406.099 563.465 405.942L540.268 371.829C540.173 371.69 540.044 371.576 539.895 371.497C539.745 371.419 539.578 371.378 539.409 371.379H471.224C471.035 371.378 470.849 371.429 470.686 371.526C470.524 371.624 470.391 371.763 470.303 371.931C470.214 372.098 470.173 372.286 470.184 372.475C470.195 372.664 470.257 372.847 470.364 373.003L493.561 407.116C493.66 407.263 493.794 407.382 493.952 407.463C494.109 407.544 494.285 407.584 494.462 407.58Z" fill="#18216D"/>
<path d="M585.584 288.935C587.569 288.379 589.677 288.436 591.629 289.099C593.833 289.919 595.737 291.389 597.087 293.315C598.738 295.662 598.929 297.668 599.188 300.492C599.761 306.942 600.344 313.392 600.935 319.841C600.957 320.895 601.204 321.933 601.658 322.884C602.467 324.039 603.662 324.867 605.028 325.217C606.191 325.648 607.43 325.833 608.668 325.76C609.906 325.687 611.115 325.358 612.219 324.794C613.254 324.103 614.128 323.199 614.785 322.143C615.442 321.086 615.865 319.901 616.026 318.668C616.333 316.199 616.278 313.698 615.863 311.245C614.948 303.453 614.498 296.317 611.278 289.03C608.699 283.177 602.272 279.861 595.968 278.81C590.35 277.891 584.59 278.407 579.225 280.311C577.443 280.831 575.829 281.81 574.545 283.149C572.621 285.415 572.826 288.021 575.678 288.826C577.606 289.512 579.651 289.809 581.695 289.699C583.005 289.517 584.303 289.262 585.584 288.935Z" fill="#18216D"/>
<path d="M595.763 297.463C595.993 296.977 596.318 296.542 596.719 296.184C597.12 295.826 597.59 295.552 598.099 295.379C598.608 295.206 599.147 295.137 599.683 295.176C600.219 295.215 600.742 295.362 601.221 295.607C603.391 296.972 603.008 300.056 601.221 301.57C600.826 301.937 600.348 302.202 599.828 302.343C599.308 302.484 598.761 302.497 598.235 302.38C597.709 302.263 597.219 302.02 596.808 301.673C596.396 301.325 596.075 300.882 595.872 300.383C595.743 299.969 595.706 299.531 595.763 299.101C595.601 298.858 595.515 298.573 595.515 298.282C595.515 297.99 595.601 297.705 595.763 297.463Z" fill="white"/>
<path d="M616.777 365.88L619.274 364.966C619.297 364.874 619.343 364.79 619.407 364.72C619.472 364.651 619.552 364.599 619.642 364.57C625.905 362.25 632.032 359.589 638.254 357.174C636.645 352.799 634.669 348.567 632.346 344.525C630.597 340.921 628.212 337.662 625.305 334.905C621.824 331.63 617.924 328.831 613.707 326.582C612.642 326.036 600.566 321.015 600.485 321.233C599.537 324.416 598.871 327.676 598.492 330.976C598.4 333.118 598.195 335.254 597.878 337.375C596.918 340.819 597.278 344.498 598.888 347.691C601.344 352.098 603.705 356.628 606.379 360.886L610.773 367.872C612.421 367.156 614.123 366.572 615.863 366.125L616.777 365.88Z" fill="#005FEC"/>
<path d="M581.791 305.227C582.48 305.831 583.365 306.164 584.281 306.164C585.197 306.164 586.082 305.831 586.771 305.227C587.071 304.941 587.003 304.463 587.044 304.054C587.085 303.644 586.785 303.194 586.376 303.221C586.251 303.231 586.129 303.268 586.021 303.331C584.765 303.863 583.032 304.668 581.791 305.227Z" fill="#18216D"/>
<path d="M517.017 385.72C516.606 385.463 516.149 385.289 515.672 385.209C515.194 385.128 514.706 385.142 514.234 385.251C513.762 385.359 513.316 385.559 512.921 385.84C512.526 386.121 512.191 386.476 511.934 386.887C511.677 387.297 511.503 387.754 511.422 388.231C511.342 388.709 511.356 389.198 511.464 389.67C511.573 390.142 511.773 390.588 512.054 390.982C512.334 391.377 512.69 391.712 513.1 391.969" stroke="#C9CDD1" stroke-miterlimit="10"/>
<path d="M542.534 461.573C540.705 456.375 539.559 450.848 537.949 445.554C537.301 443.136 536.279 440.834 534.92 438.731C533.539 436.597 531.388 435.077 528.916 434.488C524.686 433.683 520.469 436.698 518.532 440.546C513.483 450.521 517.795 461.587 524.331 469.597C526.555 472.326 528.957 474.877 531.249 477.538C533.541 480.199 535.206 483.76 537.553 486.285C541.183 490.174 547.473 487.649 550.448 484.129C553.996 479.926 549.424 474.236 546.996 470.702C545.114 467.868 543.614 464.799 542.534 461.573Z" fill="#005FEC"/>
<path d="M549.233 476.406L548.564 476.87C545.038 479.258 541.355 481.405 537.539 483.296C536.618 483.722 535.813 484.363 535.192 485.166C534.21 486.639 535.274 487.704 535.479 489.164C536.063 493.657 535.667 498.224 534.319 502.55C532.954 506.643 527.878 512.388 529.161 516.959C529.993 519.975 534.237 519.524 536.598 518.869C540.036 517.763 542.933 515.406 544.716 512.265C546.545 509.25 547.868 505.934 549.479 502.795C550.971 499.889 552.72 497.121 554.705 494.526C555.709 493.35 556.571 492.058 557.27 490.678C557.858 489.195 558.021 487.577 557.742 486.005C557.462 484.434 556.751 482.972 555.687 481.782C554.568 480.499 553.75 478.971 552.672 477.688C551.212 475.86 550.734 475.437 549.233 476.406Z" fill="#18216D"/>
<path d="M500.165 440.069C500.738 441.57 501.025 443.139 501.53 444.667C502.48 447.329 503.729 449.874 505.255 452.254C508.748 458.23 512.25 464.202 515.762 470.17L521.015 479.121C521.247 479.517 521.643 480.349 522.12 481.332C531.617 475.773 540.9 469.86 549.97 463.593C547.923 460.25 545.604 457.029 545.126 453.182C544.88 451.244 545.126 449.252 544.908 447.301C544.335 442.593 540.964 438.813 538.153 435.02C533.132 428.197 529.557 420.406 525.286 413.051C524.781 412.178 524.263 411.318 523.73 410.459C520.843 405.555 517.222 401.124 512.992 397.318C510.836 395.541 508.514 393.973 506.06 392.638C503.999 391.451 502.485 389.745 500.261 388.831C490.6 384.86 482.986 392.665 482.686 402.476C482.481 409.422 485.592 416.026 489.031 422.057C491.387 426.223 493.934 430.262 496.672 434.174C498.071 435.99 499.244 437.97 500.165 440.069Z" fill="white" stroke="#18216D" stroke-miterlimit="10"/>
<path d="M606.215 354.118C606.806 362.198 605.966 370.319 603.732 378.106C604.155 376.646 608.234 374.094 609.408 372.935C610.581 371.775 613.938 369.196 614.143 367.231C614.347 365.266 611.946 362.578 611.032 361.091C609.553 358.681 607.945 356.353 606.215 354.118Z" fill="#18216D"/>
<path d="M600.784 314.765C600.935 320.032 601.358 326.664 595.859 329.447C593.933 330.402 591.725 330.62 589.65 330.061" fill="white"/>
<path d="M600.784 314.765C600.935 320.032 601.358 326.664 595.859 329.447C593.933 330.402 591.725 330.62 589.65 330.061" stroke="#18216D" stroke-miterlimit="10"/>
<path d="M594.262 448.61C606.297 446.659 617.882 453.959 630.04 454.901L594.262 448.61Z" fill="white"/>
<path d="M594.262 448.61C606.297 446.659 617.882 453.959 630.04 454.901" stroke="#18216D" stroke-miterlimit="10"/>
<path d="M622.903 444.831C629.199 446.549 635.794 446.865 642.225 445.759L622.903 444.831Z" fill="white"/>
<path d="M622.903 444.831C629.199 446.549 635.794 446.865 642.225 445.759" stroke="#18216D" stroke-miterlimit="10"/>
<path d="M647.096 403.117C648.373 413.757 645.435 424.473 638.909 432.973" stroke="#18216D" stroke-miterlimit="10"/>
<path d="M469.041 486.039C468.604 482.996 468.249 475.123 464.538 473.977C455.914 471.316 461.345 492.22 462.109 494.922C462.172 495.17 462.284 495.403 462.439 495.607C462.593 495.811 462.788 495.982 463.009 496.109C463.317 496.88 463.782 497.579 464.374 498.162C464.966 498.744 465.672 499.198 466.448 499.493C466.797 499.59 467.166 499.592 467.517 499.498C467.867 499.405 468.186 499.219 468.44 498.961C468.669 498.735 468.871 498.483 469.041 498.21C469.27 498.034 469.453 497.803 469.572 497.539C469.691 497.275 469.743 496.985 469.723 496.696C469.73 496.66 469.73 496.623 469.723 496.587C470.542 493.353 469.423 488.686 469.041 486.039Z" fill="#18216D"/>
<path d="M449.528 466.827C446.622 466.99 443.592 470.429 441.682 472.285C438.815 475.118 436.279 478.267 434.123 481.673C433.97 481.893 433.867 482.144 433.821 482.409C433.774 482.673 433.786 482.944 433.855 483.204C433.924 483.463 434.048 483.705 434.219 483.912C434.39 484.118 434.604 484.286 434.846 484.402C435.555 486.571 438.148 486.912 440.304 486.394C443.617 485.455 446.527 483.45 448.586 480.69C450.483 478.302 452.844 475.137 453.308 472.053C453.676 469.597 452.366 466.663 449.528 466.827Z" fill="#18216D"/>
<path d="M474.321 450.971C469.3 451.298 459.939 451.353 457.06 456.429C456.788 456.876 456.608 457.373 456.53 457.89C456.452 458.408 456.476 458.935 456.603 459.443C456.73 459.95 456.957 460.428 457.269 460.847C457.582 461.267 457.975 461.62 458.425 461.887C461.154 463.797 464.688 462.992 467.635 462.174C468.068 462.067 468.45 461.811 468.713 461.45C471.004 460.941 473.206 460.095 475.249 458.94C477.2 457.848 479.752 456.211 479.465 453.714C479.179 451.217 476.423 450.835 474.321 450.971Z" fill="#18216D"/>
<path d="M477.378 433.573C475.767 429.193 472.165 425.591 468.454 422.944C468.238 422.774 467.986 422.656 467.716 422.601C467.447 422.546 467.169 422.554 466.904 422.626C466.639 422.697 466.394 422.83 466.189 423.013C465.984 423.197 465.825 423.425 465.725 423.681C464.98 423.481 464.195 423.496 463.459 423.723C462.723 423.95 462.066 424.38 461.563 424.963C458.916 427.856 460.307 433.15 462.136 436.111C464.142 439.332 469.381 442.934 473.325 442.388C477.61 441.788 478.66 437.053 477.378 433.573Z" fill="#18216D"/>
<path d="M442.773 450.753C442.371 450.614 441.934 450.614 441.532 450.753C441.097 450.659 440.647 450.666 440.215 450.772C439.783 450.879 439.381 451.083 439.04 451.369C438.7 451.654 438.428 452.014 438.248 452.421C438.067 452.827 437.981 453.269 437.998 453.714C437.998 456.238 439.853 458.885 441.668 460.536C443.77 462.412 446.421 463.561 449.228 463.811C449.769 463.808 450.288 463.591 450.671 463.208C451.054 462.825 451.271 462.306 451.274 461.764C451.219 459.262 450.364 456.843 448.834 454.861C447.304 452.88 445.181 451.44 442.773 450.753Z" fill="#18216D"/>
<path d="M499.878 446.591C499.032 445.226 498.623 443.712 497.245 442.866C496.479 442.421 495.593 442.228 494.712 442.314C493.831 442.4 492.998 442.76 492.333 443.343C489.344 445.554 487.666 449.866 487.161 453.427C486.752 456.347 486.615 461.205 490.259 462.092C492.919 462.733 494.584 460.795 495.717 458.585C496.648 457.412 497.389 456.099 497.914 454.696C498.615 452.952 499.047 451.112 499.196 449.238C499.428 449.122 499.631 448.957 499.794 448.756C499.956 448.554 500.074 448.32 500.139 448.069C500.203 447.819 500.213 447.557 500.169 447.302C500.124 447.047 500.025 446.805 499.878 446.591Z" fill="#18216D"/>
<path d="M573.385 436.876C570.656 433.601 566.221 437.544 563.97 439.4C562.124 440.941 560.425 442.649 558.894 444.503C557.898 445.718 556.056 447.423 556.274 449.143C556.274 449.306 556.342 449.47 556.383 449.634C556.27 450.036 556.193 450.447 556.151 450.862C556.158 451.402 556.376 451.919 556.758 452.301C557.141 452.684 557.657 452.902 558.198 452.909C562.387 452.909 566.385 449.252 569.223 446.495C571.325 444.449 576.032 440.096 573.385 436.876Z" fill="#18216D"/>
<path d="M556.929 419.901C554.282 417.731 550.475 415.903 546.968 416.422C542.874 417.022 541.769 420.447 543.366 423.967C543.688 424.664 544.072 425.33 544.512 425.959C544.55 426.044 544.582 426.13 544.607 426.219C545.32 427.966 546.431 429.523 547.853 430.765C549.275 432.006 550.967 432.898 552.794 433.369C555.523 434.065 562.087 434.065 562.701 430.258C563.315 426.451 559.658 422.016 556.929 419.901Z" fill="#18216D"/>
<path d="M594.248 415.234C592.652 411.277 587.248 410.677 583.687 411.059C580.589 411.4 574.722 411.864 572.484 414.689C570.819 416.053 569.564 418.073 570.942 420.078C572.675 422.589 577.874 422.698 580.562 422.807C583.333 422.945 586.093 422.362 588.572 421.115C591.533 420.392 595.613 418.605 594.248 415.234Z" fill="#18216D"/>
<path d="M595.845 432.864C593.007 429.698 587.467 429.152 585.42 433.492C584.206 436.084 584.861 438.95 586.13 441.679C586.653 443.908 587.849 445.923 589.555 447.451L590.141 448.324C590.331 448.604 590.585 448.835 590.881 448.998C591.178 449.161 591.508 449.251 591.847 449.262C592.185 449.273 592.52 449.203 592.826 449.059C593.133 448.915 593.4 448.7 593.607 448.433C594.778 448.345 595.91 447.97 596.902 447.342C597.894 446.714 598.717 445.852 599.297 444.831C600.948 441.433 598.178 435.456 595.845 432.864Z" fill="#18216D"/>
<path d="M624.363 423.08C624.411 422.856 624.409 422.624 624.359 422.401C624.309 422.177 624.212 421.967 624.073 421.785C623.935 421.602 623.758 421.451 623.557 421.343C623.355 421.235 623.132 421.171 622.903 421.156C617.936 420.474 612.519 419.669 607.784 421.798C605.356 422.889 602.326 425.809 603.8 428.798C605.669 432.386 612.669 432.741 616.081 432.891C619.724 433 624.677 432.086 626.587 428.538C627.993 425.959 626.738 424.199 624.363 423.08Z" fill="#18216D"/>
<path d="M543.052 436.644C542.588 434.406 540.678 433.683 538.617 433.696C538.433 433.268 538.098 432.921 537.676 432.723C537.253 432.524 536.773 432.487 536.325 432.618C531.992 433.648 528.14 436.127 525.409 439.646C523.526 442.088 520.947 446.223 524.263 448.651C527.579 451.08 532.927 447.655 535.738 445.636C538.154 443.916 543.775 440.069 543.052 436.644Z" fill="#18216D"/>
<path d="M528.493 460.891C521.356 461.751 515.68 470.115 511.764 475.328C511.521 475.614 511.388 475.976 511.388 476.351C511.388 476.726 511.521 477.088 511.764 477.374C511.584 477.833 511.499 478.323 511.513 478.815C511.527 479.308 511.64 479.792 511.845 480.24C514.725 486.339 525.109 475.901 527.374 473.417C529.352 471.289 532.572 467.959 533.023 464.998C533.473 462.037 531.085 460.577 528.493 460.891Z" fill="#18216D"/>
<path d="M514.438 435.279C514.347 434.981 514.19 434.707 513.98 434.477C513.769 434.247 513.51 434.067 513.222 433.949C512.933 433.832 512.622 433.78 512.311 433.798C512 433.815 511.696 433.902 511.423 434.051C504.723 438.24 504.054 448.911 504.464 455.979C504.475 456.4 504.621 456.806 504.878 457.14C505.135 457.473 505.492 457.716 505.896 457.835C506.104 458.604 506.573 459.277 507.223 459.738C507.873 460.198 508.663 460.418 509.458 460.359C513.551 460.25 515.134 453.877 515.775 450.807C516.869 445.613 516.404 440.21 514.438 435.279Z" fill="#18216D"/>
<path d="M531.454 409.94C531.362 409.521 531.119 409.151 530.772 408.899C530.425 408.647 529.997 408.532 529.571 408.576H529.325C525.586 406.948 521.441 406.496 517.44 407.279C512.76 407.279 507.029 409.121 507.206 414.32C507.424 420.788 520.374 418.414 524.167 417.677C527.333 417.158 536.011 413.624 531.454 409.94Z" fill="#18216D"/>
<path d="M500.657 418.796C500.193 418.96 499.729 419.164 499.292 419.342C498.263 419.621 497.292 420.083 496.427 420.706C494.851 421.519 493.353 422.473 491.951 423.558C489.672 425.345 486.357 428.006 485.415 430.872C484.583 433.341 486.589 435.279 488.99 435.279C491.719 435.279 494.598 433.464 496.645 431.868C498.323 430.503 503.781 424.745 503.113 421.429C503.386 419.969 502.349 418.182 500.657 418.796Z" fill="#18216D"/>
<path d="M500.206 396.322C499.388 392.42 496.481 393.375 493.793 393.866C493.461 393.886 493.129 393.886 492.797 393.866C490.068 394.057 487.653 397.96 486.452 400.197C484.924 402.926 483.723 406.57 485.374 409.544C488.785 415.753 495.976 407.825 497.914 404.509C499.265 402.258 500.779 399.051 500.206 396.322Z" fill="#18216D"/>
<path d="M729.922 79.8367H478.851V231.298H729.922V79.8367Z" fill="white" stroke="#18216D" stroke-miterlimit="10"/>
<path d="M497.737 224.448C496.481 216.397 498.009 207.637 503.195 201.347C505.637 198.399 508.844 195.984 510.386 192.491C511.09 190.702 511.514 188.815 511.641 186.897C512.678 176.349 510.89 164.832 516.553 155.867C518.832 152.251 522.161 149.413 524.74 145.975C529.393 139.63 531.113 131.593 535.274 124.934C539.436 118.275 548.046 112.94 554.992 116.624C561.937 120.308 562.428 129.792 560.313 137.174C558.198 144.556 554.2 151.733 554.896 159.374C555.524 166.047 559.713 171.982 560.463 178.655C561.296 186.01 557.871 193.214 557.734 200.61C557.489 209.998 562.415 219.085 561.309 228.405C560.204 237.725 553.313 245.243 545.017 249.214C536.311 253.389 517.085 257.592 508.584 250.769C502.54 245.966 498.814 231.421 497.737 224.448Z" fill="#005FEC"/>
<path d="M620.543 232.635C619.288 224.584 620.816 215.824 626.001 209.534C630.286 204.349 633.983 202.52 633.779 195.643C633.533 186.937 630.613 179.16 631.978 170.209C633.792 158.31 640.656 147.721 643.126 135.946C645.104 126.394 644.49 115.71 650.562 108.164C652.333 105.751 654.959 104.106 657.903 103.566C665.231 102.569 670.402 111.084 670.757 118.48C671.112 125.875 668.874 133.489 670.975 140.558C673.227 148.172 680.145 153.862 681.81 161.626C682.778 166.197 681.81 170.986 682.437 175.612C682.969 179.569 684.661 183.253 686.012 187.006C693.763 208.524 691.266 246.171 667.81 257.401C659.104 261.576 639.878 265.779 631.377 258.957C625.346 254.153 621.621 239.608 620.543 232.635Z" fill="#005FEC"/>
<path d="M653.987 244.97V244.888C654.133 236.132 656.202 227.514 660.045 219.645C666.418 206.641 677.593 195.698 680.254 181.438C681.537 174.616 680.677 167.493 680.95 160.507C681.223 153.52 682.901 146.07 688.059 141.404C690.46 139.22 694.145 137.76 696.942 139.425C698.466 140.502 699.592 142.051 700.149 143.832C702.878 150.914 702.755 158.76 703.764 166.306C705.361 178.218 714.285 184.249 715.649 195.78C717.191 208.92 715.281 222.197 711.447 234.791C707.271 248.518 703.915 262.845 689.614 269.709C677.443 275.549 665.49 277.35 658.094 263.923C655.113 258.066 653.698 251.536 653.987 244.97Z" fill="#005FEC"/>
<path d="M537.744 228.364C537.553 225.171 539.327 222.224 541.169 219.631C548.142 209.82 556.956 201.429 563.342 191.208C566.876 185.559 570.888 180.197 572.28 173.47C572.819 170.21 573.066 166.908 573.017 163.604C572.984 156.967 573.903 150.359 575.746 143.983C578.802 134.431 585.475 125.889 594.508 121.55C609.518 114.359 632.714 114.987 640.901 132.207C644.108 138.934 644.736 146.725 644.777 154.039C644.777 162.908 643.808 171.846 644.981 180.647C646.346 190.54 651.94 196.625 659.172 202.984C664.153 207.364 667.96 211.526 668.819 218.212C669.638 224.584 666.677 230.916 662.447 235.528C656.457 242.064 648.092 246.048 639.496 248.218C630.899 250.387 621.976 250.879 613.133 251.411C603.022 252.025 592.857 252.693 582.8 251.561C572.744 250.428 562.674 247.345 554.664 241.163C551.703 238.885 548.933 236.115 545.494 234.559C542.056 233.003 538.031 233.331 537.744 228.364Z" fill="#18216D"/>
<path d="M610.596 239.744C606.484 240.283 602.339 240.529 598.192 240.481C595.763 240.481 592.106 240.631 590.128 238.994C588.149 237.356 588.054 234.586 587.999 232.43C587.795 224.707 589.364 217.08 590.155 209.397C590.756 203.216 590.81 196.776 588.914 190.799C587.181 185.341 584.561 180.552 583.701 174.711C583.496 173.347 583.701 170.099 582.787 168.967C581.873 167.834 580.317 168.08 579.43 166.934C578.566 165.711 578.16 164.223 578.284 162.731C578.404 161.062 578.975 159.456 579.936 158.087C580.898 156.717 582.213 155.634 583.742 154.953C583.8 154.937 583.85 154.901 583.882 154.85C583.915 154.8 583.928 154.74 583.919 154.68C583.005 145.129 587.044 135.045 595.518 130.392C604.223 125.63 614.239 122.082 623.422 128.209C627.877 131.301 631.081 135.884 632.455 141.131C632.919 142.727 634.42 157.614 634.516 158.337C635.25 158.232 636 158.342 636.673 158.655C637.347 158.967 637.915 159.468 638.309 160.097C639.081 161.368 639.487 162.827 639.482 164.314C639.584 165.825 639.215 167.33 638.425 168.623C637.636 169.916 636.466 170.932 635.075 171.532C631.664 172.897 632.592 176.458 631.746 179.719C630.704 183.789 628.847 187.604 626.288 190.935C625.688 191.627 625.196 192.404 624.828 193.242C624.541 194.247 624.458 195.3 624.582 196.339C625.173 207.328 625.428 218.326 625.346 229.333C625.346 232.649 624.841 235.378 621.839 236.974C618.332 238.789 614.444 239.212 610.596 239.744Z" fill="white" stroke="#18216D" stroke-miterlimit="10"/>
<path d="M594.658 129.055C590.178 130.832 586.362 133.961 583.742 138.006C581.283 142.378 580.213 147.394 580.672 152.388C580.822 154.025 581.941 155.908 583.564 155.704C584.847 155.54 585.57 154.189 586.293 153.097C590.919 146.07 601.985 144.569 609.736 144.051C611.701 143.928 613.666 143.887 615.644 143.928C620.952 144.037 626.137 145.47 631.377 145.688C635.471 145.866 640.014 142.959 642.621 139.998C645.468 136.756 647.023 132.579 646.987 128.263C647.046 126.363 646.517 124.49 645.472 122.901C643.699 120.472 640.274 119.53 637.408 119.694C634.684 119.84 631.989 120.326 629.385 121.141C626.811 122.202 624.136 123.002 621.402 123.528C618.578 123.87 615.74 124.552 612.888 124.988C606.734 125.875 600.416 126.53 594.658 129.055Z" fill="#18216D"/>
<path d="M610.691 187.21C608.303 187.934 606.42 188.575 603.95 187.62C603.282 187.347 602.804 188.479 603.459 188.78C605.847 189.898 609.231 190.144 611.305 188.261C611.405 188.163 611.469 188.035 611.487 187.896C611.506 187.758 611.477 187.617 611.407 187.497C611.336 187.376 611.228 187.283 611.098 187.231C610.968 187.179 610.825 187.172 610.691 187.21Z" fill="#18216D"/>
<path d="M610.254 171.655H609.668L605.288 172.337C600.13 173.142 603.718 179.746 607.812 178.75C608.581 178.592 609.305 178.261 609.927 177.782C610.672 177.056 611.242 176.169 611.592 175.189C611.875 174.63 612.056 174.025 612.124 173.401C612.158 173.088 612.107 172.771 611.974 172.485C611.842 172.199 611.634 171.955 611.373 171.778C611.022 171.623 610.631 171.58 610.254 171.655Z" fill="#18216D"/>
<path d="M607.334 167.097C606.311 167.097 607.334 161.066 607.416 160.275C607.604 158.457 607.554 156.622 607.266 154.817C607.266 154.53 606.816 154.612 606.802 154.817C606.625 158.583 605.779 162.253 605.561 165.979C605.479 167.343 605.943 168.708 607.498 168.23C607.606 168.169 607.692 168.077 607.747 167.966C607.801 167.855 607.821 167.73 607.803 167.608C607.786 167.485 607.731 167.371 607.648 167.28C607.564 167.189 607.455 167.125 607.334 167.097Z" fill="#18216D"/>
<path d="M595.695 159.77C595.637 159.575 595.518 159.404 595.357 159.281C595.195 159.159 594.998 159.091 594.795 159.088H594.699C594.511 159.088 594.327 159.137 594.164 159.231C594.002 159.324 593.866 159.458 593.771 159.62C593.771 159.62 593.771 159.62 593.771 159.688C593.63 159.857 593.543 160.065 593.524 160.285C593.504 160.505 593.552 160.725 593.662 160.916L593.744 161.025C594.317 161.817 595.845 161.667 595.777 160.48C595.777 160.241 595.75 160.002 595.695 159.77Z" fill="#18216D"/>
<path d="M620.202 158.515C619.287 157.669 617.909 159.047 618.837 159.879C618.865 160.023 618.916 160.161 618.987 160.288C619.067 160.424 619.18 160.537 619.317 160.615C619.453 160.694 619.608 160.735 619.765 160.735C619.922 160.735 620.077 160.694 620.213 160.615C620.35 160.537 620.463 160.424 620.543 160.288C620.688 159.996 620.734 159.664 620.672 159.344C620.611 159.023 620.445 158.732 620.202 158.515Z" fill="#18216D"/>
<path d="M613.379 199.587C616.834 201.636 620.432 203.432 624.145 204.963C624.461 205.097 624.805 205.154 625.147 205.127C625.489 205.1 625.82 204.991 626.11 204.808C626.401 204.626 626.644 204.376 626.817 204.08C626.991 203.784 627.09 203.45 627.106 203.107C627.218 199.672 627.699 196.26 628.539 192.928C629.003 191.208 630.531 189.803 630.531 188.029C630.542 187.782 630.485 187.537 630.367 187.32C630.189 187.074 629.929 186.9 629.633 186.83C629.338 186.76 629.027 186.798 628.757 186.937C628.216 187.221 627.749 187.628 627.393 188.125C623.613 192.627 619.56 194.347 613.993 195.657C613.576 195.753 613.197 195.971 612.906 196.284C612.614 196.598 612.423 196.991 612.356 197.414C612.29 197.837 612.353 198.27 612.535 198.657C612.717 199.044 613.011 199.368 613.379 199.587Z" fill="#18216D"/>
<path d="M729.922 79.8367H478.851V231.298H729.922V79.8367Z" stroke="#18216D" stroke-miterlimit="10"/>
<path d="M486.424 70.6535H722.376C724.548 70.6535 726.63 71.5161 728.165 73.0514C729.701 74.5868 730.563 76.6692 730.563 78.8406V89.1017H478.128V78.8406C478.128 77.7562 478.343 76.6826 478.762 75.6821C479.18 74.6816 479.793 73.7742 480.565 73.0125C481.336 72.2508 482.252 71.6501 483.258 71.2451C484.264 70.8401 485.34 70.639 486.424 70.6535Z" fill="#18216D"/>
<path d="M489.768 85.8814C492.556 85.8814 494.816 83.6211 494.816 80.8327C494.816 78.0444 492.556 75.784 489.768 75.784C486.979 75.784 484.719 78.0444 484.719 80.8327C484.719 83.6211 486.979 85.8814 489.768 85.8814Z" fill="white"/>
<path d="M513.415 80.6008C513.457 81.5953 513.203 82.5801 512.686 83.4306C512.169 84.2811 511.411 84.9591 510.509 85.3791C509.606 85.7991 508.599 85.9422 507.616 85.7902C506.632 85.6383 505.715 85.1981 504.981 84.5254C504.248 83.8527 503.73 82.9776 503.493 82.0106C503.257 81.0437 503.312 80.0284 503.652 79.0929C503.993 78.1574 504.603 77.3438 505.405 76.7549C506.208 76.166 507.167 75.8281 508.161 75.7841C509.496 75.7285 510.798 76.2043 511.783 77.1071C512.768 78.01 513.354 79.2662 513.415 80.6008Z" fill="white"/>
<path d="M513.414 80.6008C513.457 81.5953 513.203 82.5801 512.686 83.4306C512.168 84.281 511.411 84.9591 510.508 85.3791C509.606 85.7991 508.599 85.9422 507.615 85.7902C506.631 85.6383 505.715 85.1981 504.981 84.5254C504.247 83.8527 503.73 82.9775 503.493 82.0106C503.256 81.0437 503.312 80.0283 503.652 79.0929C503.992 78.1574 504.602 77.3438 505.405 76.7549C506.207 76.1659 507.167 75.8281 508.161 75.784C509.496 75.7285 510.798 76.2043 511.783 77.1071C512.767 78.0099 513.354 79.2662 513.414 80.6008Z" fill="white"/>
<path d="M502.512 74.6924L514.247 86.9731" stroke="#18216D" stroke-miterlimit="10"/>
<path d="M502.239 86.7002L514.52 74.9517" stroke="#18216D" stroke-miterlimit="10"/>
<path d="M439.28 27.3029H255.071V178.764H439.28V27.3029Z" fill="white" stroke="#18216D" stroke-miterlimit="10"/>
<path d="M274.843 82.4702C274.408 79.7801 274.584 77.0265 275.359 74.4139C276.134 71.8013 277.487 69.3967 279.318 67.3787C280.683 66.0141 282.047 65.0999 282.907 63.2851C283.225 62.4405 283.44 61.561 283.548 60.6652C284.118 58.0014 285.241 55.4869 286.844 53.2845C288.447 51.082 290.495 49.2407 292.854 47.8797C297.985 44.6322 303.102 44.564 308.969 43.5815C310.702 43.295 312.367 42.7492 314.086 42.4626C315.725 42.2057 317.392 42.1736 319.04 42.3671C323.853 43.0329 328.37 45.0805 332.043 48.2618C334.444 50.3415 336.418 52.867 337.856 55.6984C339.221 57.9089 339.753 60.4333 341.008 62.6574C342.455 65.1954 344.174 65.1136 346.616 66.287C348.819 67.3541 350.739 68.924 352.223 70.87C353.707 72.816 354.712 75.0836 355.158 77.4897C357.109 89.361 344.938 97.9574 334.117 95.5013C325.93 93.6728 313.65 93.7274 307.4 100.1C304.794 102.72 302.597 105.803 299.554 107.905C299.24 108.109 298.927 108.314 298.599 108.505C295.79 110.127 292.62 111.023 289.378 111.111C286.135 111.2 282.921 110.477 280.028 109.01C272.373 104.78 272.973 95.938 275.43 88.6514C275.711 87.9946 275.868 87.2914 275.894 86.5774C275.825 85.9639 275.674 85.3626 275.443 84.7899C275.183 84.0334 274.983 83.2578 274.843 82.4702Z" fill="#005FEC"/>
<path d="M311.794 128.741C314.837 134.717 321.346 137.678 328.509 136.71H328.673C330.487 136.417 332.222 135.761 333.776 134.782C335.33 133.803 336.67 132.519 337.716 131.01C338.762 129.5 339.493 127.794 339.864 125.995C340.235 124.196 340.239 122.341 339.876 120.54L337.461 108.15C337.028 106.53 336.953 104.835 337.242 103.183C337.756 101.738 338.448 100.363 339.303 99.0899C344.761 89.1972 338.566 77.9536 333.517 69.3708C331.503 65.8946 328.652 62.9775 325.222 60.885C321.793 58.7925 317.894 57.5912 313.882 57.3904C296.239 56.6672 287.547 72.6866 290.972 88.3785C292.936 97.3024 298.299 103.702 305.135 109.378C311.971 115.055 312.354 120.24 311.794 128.741Z" fill="white" stroke="#18216D" stroke-miterlimit="10"/>
<path d="M295.242 72.9049C294.939 74.248 294.883 75.6354 295.079 76.9985C295.468 80.296 294.914 83.6363 293.482 86.6319C292.67 88.0299 291.643 89.2915 290.439 90.3707C289.472 91.3772 288.299 92.1637 287.001 92.6767C286.351 92.9218 285.651 93.0051 284.962 92.9195C284.272 92.8339 283.614 92.582 283.044 92.1855C282.502 91.6958 282.086 91.0835 281.829 90.3997C281.573 89.716 281.484 88.9808 281.57 88.2557C281.74 86.8118 282.06 85.3896 282.525 84.0121C283.207 81.4331 283.48 78.7587 284.203 76.1934C284.795 73.566 286.263 71.2178 288.365 69.5346C289.168 68.952 290.092 68.5595 291.068 68.387C292.045 68.2144 293.047 68.2662 294.001 68.5385C294.683 68.7704 296.129 69.3845 296.375 70.1486C296.716 71.2402 295.584 71.8133 295.242 72.9049Z" fill="#005FEC"/>
<path d="M300.004 71.6496C301.76 71.1857 303.458 70.5266 305.067 69.6847C305.446 69.4457 305.876 69.3006 306.322 69.2617C306.708 69.2874 307.082 69.4043 307.414 69.6028C309.884 70.9959 312.59 71.921 315.396 72.3318C318.221 72.5092 321.373 71.1856 322.328 68.5248C322.464 68.1564 322.628 67.6925 323.024 67.6379C323.164 67.639 323.302 67.6699 323.429 67.7288C323.556 67.7876 323.669 67.8729 323.761 67.979C326.967 70.7081 330.242 75.3883 335.113 73.2051C337.706 72.0453 339.043 69.1116 339.207 66.2188C339.507 59.942 334.868 54.1974 329.151 51.5776C323.433 48.9577 316.87 48.985 310.634 49.79C306.22 50.244 301.91 51.4195 297.876 53.2696C293.55 55.3982 291.967 58.7276 289.607 62.8212C288.976 63.7264 288.563 64.765 288.4 65.8561C288.236 66.9473 288.327 68.0614 288.665 69.1116C290.03 72.0862 293.946 72.7139 297.166 72.25C298.124 72.1107 299.072 71.9101 300.004 71.6496Z" fill="#005FEC"/>
<path d="M326.926 108.164C326.418 108.412 325.893 108.626 325.357 108.805C324.688 109.037 321.768 109.092 321.495 109.488C320.649 110.729 323.72 111.016 324.224 111.098C325.53 111.286 326.811 111.616 328.045 112.08C328.991 112.501 329.903 112.994 330.774 113.554L334.144 115.532C333.384 111.759 332.928 107.931 332.78 104.084C332.78 104.63 329.969 106.322 329.505 106.636C328.682 107.205 327.82 107.715 326.926 108.164Z" fill="#18216D"/>
<path d="M304.18 83.6709C303.939 83.6036 303.685 83.6036 303.444 83.6709C303.204 83.7383 302.986 83.8705 302.816 84.053C302.733 84.1409 302.672 84.2462 302.636 84.361C302.6 84.4758 302.59 84.5972 302.607 84.7163C302.624 84.8354 302.667 84.9492 302.734 85.0493C302.801 85.1494 302.889 85.2333 302.993 85.2947C303.073 85.3934 303.172 85.4745 303.285 85.5332C303.398 85.5919 303.521 85.6268 303.648 85.6358C303.814 85.6447 303.98 85.6174 304.134 85.5558C304.288 85.4942 304.428 85.3998 304.542 85.2791C304.656 85.1583 304.743 85.0142 304.796 84.8567C304.849 84.6992 304.867 84.532 304.849 84.3668C304.827 84.1942 304.751 84.033 304.63 83.9076C304.51 83.7821 304.352 83.6991 304.18 83.6709Z" fill="#18216D"/>
<path d="M326.476 80.3551C326.321 80.1232 326.089 79.9539 325.821 79.8776C325.789 79.8162 325.743 79.7635 325.686 79.7241C325.629 79.6848 325.563 79.66 325.495 79.6519C325.426 79.6438 325.357 79.6527 325.292 79.6778C325.228 79.7029 325.17 79.7433 325.125 79.7957C324.62 80.3006 324.511 80.437 324.661 81.1602C324.689 81.2811 324.75 81.392 324.837 81.4809C324.923 81.5699 325.032 81.6336 325.152 81.6651C325.408 81.7457 325.683 81.7354 325.932 81.6359C326.181 81.5364 326.388 81.3538 326.517 81.1193C326.584 81.0013 326.616 80.8666 326.608 80.7312C326.601 80.5958 326.555 80.4653 326.476 80.3551Z" fill="#18216D"/>
<path d="M318.643 86.7139C318.248 85.2129 317.197 83.671 317.006 82.1564C317.006 82.0478 316.963 81.9437 316.886 81.8669C316.809 81.7902 316.705 81.747 316.597 81.747C316.488 81.747 316.384 81.7902 316.307 81.8669C316.231 81.9437 316.187 82.0478 316.187 82.1564C316.229 83.4457 316.487 84.7188 316.952 85.9224C317.334 87.3825 317.347 88.9244 317.798 90.3435C317.975 90.9029 318.944 91.0257 319.053 90.3435C319.169 89.1183 319.03 87.8823 318.643 86.7139Z" fill="#18216D"/>
<path d="M328.236 78.6223C327.269 77.9371 326.095 77.6087 324.912 77.6934C323.73 77.778 322.614 78.2703 321.755 79.0862C321.697 79.1582 321.665 79.2476 321.665 79.3399C321.664 79.4322 321.695 79.522 321.752 79.5947C321.809 79.6674 321.888 79.7187 321.978 79.7403C322.068 79.762 322.162 79.7526 322.246 79.7139C323.085 79.1966 324.009 78.8316 324.975 78.6359C325.972 78.6192 326.962 78.7905 327.895 79.1408C327.963 79.1723 328.041 79.1782 328.113 79.1576C328.185 79.1369 328.248 79.0911 328.289 79.0283C328.33 78.9655 328.348 78.8901 328.338 78.8155C328.328 78.741 328.292 78.6725 328.236 78.6223Z" fill="#18216D"/>
<path d="M303.88 81.2694C302.389 81.1661 300.917 81.6566 299.786 82.6339C299.715 82.7163 299.671 82.8193 299.661 82.928C299.652 83.0368 299.677 83.1459 299.733 83.2396C299.789 83.3334 299.873 83.4071 299.973 83.4503C300.073 83.4934 300.185 83.5038 300.291 83.4799C301.942 83.0432 304.494 81.5423 306.131 82.9068C306.181 82.952 306.243 82.9804 306.31 82.9877C306.376 82.995 306.443 82.9808 306.501 82.9473C306.559 82.9138 306.605 82.8627 306.631 82.8014C306.658 82.7401 306.665 82.6718 306.65 82.6066C306.363 81.4195 304.876 81.2966 303.88 81.2694Z" fill="#18216D"/>
<path d="M317.811 99.0763C317.744 98.6769 317.831 98.2667 318.057 97.9301C318.345 97.3602 318.669 96.8087 319.026 96.2791C319.498 95.4674 320.208 94.8198 321.059 94.4233C321.488 94.2382 321.968 94.2107 322.415 94.3455C322.862 94.4803 323.247 94.7689 323.501 95.1602C323.648 95.5782 323.686 96.0265 323.612 96.4632C323.538 96.8999 323.354 97.3107 323.078 97.6572C322.41 98.7079 318.576 101.56 317.811 99.0763Z" fill="#18216D"/>
<path d="M334.663 67.1603C332.629 67.1068 330.645 66.5236 328.905 65.4683C327.813 64.6769 324.975 62.1935 325.194 60.7061C325.262 60.2695 324.661 59.9147 324.416 60.3787C323.42 62.2617 325.876 64.7997 327.145 66.0414C329.192 68.1018 331.907 68.6749 334.691 69.0433C335.878 69.1934 335.878 67.2558 334.663 67.1603Z" fill="white"/>
<path d="M313.472 65.4956C312.16 65.2785 310.901 64.8155 309.761 64.1311C308.765 63.4625 306.24 61.5249 307.291 60.2013C307.564 59.8601 307.113 59.3689 306.8 59.71C305.435 61.1974 306.95 63.0668 308.069 64.1993C309.433 65.5638 311.616 67.1057 313.527 66.2188C313.583 66.1745 313.628 66.117 313.656 66.0514C313.685 65.9858 313.698 65.9141 313.692 65.8426C313.687 65.7712 313.664 65.7021 313.626 65.6416C313.587 65.5811 313.534 65.5309 313.472 65.4956Z" fill="white"/>
<path d="M299.036 66.2734C298.037 66.0813 297.023 65.9718 296.006 65.9459C295.324 65.8231 292.172 65.0044 293.005 63.8309C293.277 63.4215 292.636 62.9167 292.309 63.2987C289.975 66.0278 297.248 68.4157 299.131 67.0239C299.196 66.9801 299.248 66.9191 299.281 66.8476C299.313 66.7761 299.325 66.697 299.315 66.6191C299.305 66.5412 299.274 66.4676 299.225 66.4065C299.175 66.3455 299.11 66.2994 299.036 66.2734Z" fill="white"/>
<path d="M439.28 27.3029H255.071V178.764H439.28V27.3029Z" stroke="#18216D" stroke-miterlimit="10"/>
<path d="M294.574 191.863C284.64 190.704 274.556 189.134 264.732 191.004C265.496 175.448 267.665 159.756 273.751 145.429C279.837 131.101 290.125 118.139 304.111 111.316C321.577 102.692 342.782 102.692 361.189 108.137C379.255 113.499 396.162 127.322 409.029 140.735C415.819 147.817 421.817 155.618 426.918 164C428.226 166.005 429.271 168.17 430.029 170.44C430.633 172.547 430.787 174.757 430.482 176.926C430.176 179.096 429.417 181.177 428.255 183.035C420.532 195.234 402.234 191.413 390.39 192.587C379.774 193.678 369.131 194.374 358.46 194.674C337.124 195.301 315.772 194.361 294.574 191.863Z" fill="#18216D"/>
<path d="M297.139 134.895C298.503 129.546 299.745 123.692 298.503 118.835C297.234 113.663 293.045 109.16 290.807 104.33C288.829 99.9497 287.792 94.7781 289.525 90.3571C289.621 90.0647 289.769 89.792 289.961 89.552C290.192 89.3649 290.459 89.2277 290.746 89.1493C291.032 89.0709 291.332 89.0529 291.626 89.0965C291.92 89.1402 292.201 89.2444 292.453 89.4027C292.704 89.561 292.92 89.7699 293.086 90.016C293.709 91.0409 294.131 92.1757 294.328 93.359C295.256 96.6339 297.48 99.3493 299.663 101.955C304.644 107.932 311.002 111.862 312.244 120.076C313.049 125.384 312.558 130.883 313.076 136.246C313.69 142.509 314.7 148.717 315.287 154.981C315.887 161.517 317.797 181.275 310.129 184.481C305.312 186.501 293.482 184.877 289.743 181.015C288.679 179.797 287.865 178.38 287.35 176.846C286.835 175.312 286.628 173.692 286.741 172.078C286.988 168.857 287.691 165.686 288.829 162.663C291.189 155.404 293.782 148.185 295.651 140.762C296.061 138.934 296.607 136.955 297.139 134.895Z" fill="white" stroke="#18216D" stroke-miterlimit="10"/>
<path d="M382.871 162.826C382.857 162.713 382.819 162.603 382.76 162.504C382.701 162.406 382.622 162.32 382.529 162.254C382.435 162.187 382.329 162.14 382.216 162.117C382.104 162.093 381.988 162.093 381.875 162.117C378.71 158.856 375.353 155.199 371.505 152.879C371.177 152.674 370.659 153.111 370.932 153.452C372.482 155.279 374.155 156.998 375.94 158.596C377.795 160.452 379.651 162.322 381.48 164.218C381.957 164.723 383.076 164.382 382.981 163.604C382.94 163.345 382.912 163.086 382.871 162.826Z" fill="white"/>
<path d="M394.252 160.138C382.667 162.158 370.891 166.32 360.562 170.127C357.964 171.207 355.261 172.016 352.497 172.542C349.512 172.819 346.509 172.851 343.519 172.637C335.55 172.515 327.063 174.425 321.482 180.128C319.517 182.148 318.971 187.183 322.192 188.479C325.412 189.776 330.515 187.483 334.186 187.92C337.893 188.4 341.645 188.437 345.361 188.029C356.787 186.81 368.244 186.173 379.733 186.119C393.105 186.037 406.559 186.733 419.768 184.659C422.287 184.395 424.727 183.629 426.945 182.407C432.403 179.023 433.768 170.618 429.511 166.033C424.721 160.875 415.634 159.101 408.947 158.938C404.021 158.858 399.099 159.26 394.252 160.138Z" fill="white" stroke="#18216D" stroke-miterlimit="10"/>
<path d="M439.28 27.3029H255.071V178.764H439.28V27.3029Z" stroke="#18216D" stroke-miterlimit="10"/>
<path d="M262.644 18.8019H431.735C433.906 18.8019 435.988 19.6645 437.524 21.1998C439.059 22.7352 439.922 24.8176 439.922 26.989V37.2501H254.416V27.0299C254.41 25.9479 254.62 24.8755 255.031 23.8748C255.443 22.8741 256.049 21.9649 256.814 21.1997C257.579 20.4346 258.488 19.8287 259.489 19.4172C260.489 19.0056 261.562 18.7965 262.644 18.8019Z" fill="#18216D"/>
<path d="M265.987 34.0299C268.776 34.0299 271.036 31.7695 271.036 28.9812C271.036 26.1929 268.776 23.9325 265.987 23.9325C263.199 23.9325 260.938 26.1929 260.938 28.9812C260.938 31.7695 263.199 34.0299 265.987 34.0299Z" fill="white"/>
<path d="M289.634 28.7492C289.676 29.7438 289.423 30.7285 288.906 31.579C288.388 32.4295 287.631 33.1076 286.728 33.5276C285.826 33.9476 284.819 34.0906 283.835 33.9387C282.851 33.7867 281.935 33.3465 281.201 32.6738C280.467 32.0011 279.949 31.126 279.713 30.159C279.476 29.1921 279.532 28.1768 279.872 27.2413C280.212 26.3059 280.822 25.4923 281.625 24.9033C282.427 24.3144 283.386 23.9765 284.381 23.9325C285.716 23.877 287.018 24.3527 288.003 25.2556C288.987 26.1584 289.574 27.4147 289.634 28.7492Z" fill="white"/>
<path d="M289.634 28.7492C289.676 29.7437 289.423 30.7285 288.905 31.579C288.388 32.4295 287.63 33.1075 286.728 33.5275C285.825 33.9475 284.819 34.0906 283.835 33.9386C282.851 33.7867 281.935 33.3465 281.201 32.6738C280.467 32.0011 279.949 31.126 279.713 30.159C279.476 29.1921 279.532 28.1768 279.872 27.2413C280.212 26.3058 280.822 25.4922 281.625 24.9033C282.427 24.3144 283.386 23.9765 284.381 23.9325C285.715 23.8769 287.018 24.3527 288.002 25.2555C288.987 26.1584 289.574 27.4146 289.634 28.7492Z" fill="white"/>
<path d="M278.732 22.8409L290.467 35.1215" stroke="#18216D" stroke-miterlimit="10"/>
<path d="M278.459 34.8486L290.739 23.1001" stroke="#18216D" stroke-miterlimit="10"/>
<path d="M432.458 244.943H219.593V396.404H432.458V244.943Z" fill="white" stroke="#18216D" stroke-miterlimit="10"/>
<path d="M362.294 323.621C370.85 327.442 381.302 327.319 392.191 320.428C417.284 304.545 410.052 250.838 368.394 261.372C329.409 271.278 338.32 312.923 362.294 323.621Z" fill="#005FEC"/>
<path d="M399.696 290.641C395.343 292.101 391.208 294.093 386.801 295.444C382.771 296.661 378.67 297.628 374.52 298.336C374.711 292.878 374.957 287.379 375.257 281.839C375.571 276.122 376.622 270.036 376.089 264.333C376.089 263.964 375.503 263.841 375.407 264.237C374.043 269.613 374.125 275.645 373.756 281.157C373.356 287.234 373.028 293.301 372.774 299.36C372.774 299.491 372.804 299.621 372.862 299.739C372.92 299.857 373.004 299.961 373.108 300.041C373.212 300.122 373.333 300.177 373.462 300.203C373.591 300.229 373.724 300.226 373.852 300.192C382.666 298.828 392.573 296.713 400.31 292.101C401.06 291.65 400.583 290.34 399.696 290.641Z" fill="#18216D"/>
<path d="M376.417 323.457C376.315 322.996 376.377 322.513 376.594 322.093C376.799 321.711 376.376 321.192 375.98 321.465C375.666 321.668 375.407 321.947 375.229 322.276C375.05 322.605 374.956 322.974 374.957 323.348C374.957 324.003 375.312 325.067 376.144 324.985C376.25 324.981 376.353 324.943 376.436 324.876C376.519 324.81 376.579 324.719 376.608 324.617C376.813 324.235 376.499 323.88 376.417 323.457Z" fill="#18216D"/>
<path d="M348.581 292.687C348.158 291.855 347.639 292.442 347.093 292.687C346.419 292.845 345.726 292.914 345.033 292.892C344.269 292.96 343.505 293.056 342.741 293.192C342.263 293.288 342.236 294.12 342.741 294.188C344.167 294.447 345.62 294.53 347.066 294.434C347.83 294.311 349.072 293.643 348.581 292.687Z" fill="#18216D"/>
<path d="M376.813 260.621C376.734 260.546 376.633 260.498 376.526 260.483C376.418 260.469 376.308 260.488 376.212 260.539C375.85 260.77 375.582 261.121 375.455 261.531C375.327 261.941 375.349 262.382 375.516 262.777C375.553 262.915 375.625 263.04 375.726 263.141C375.826 263.242 375.952 263.314 376.089 263.35C376.211 263.376 376.337 263.375 376.459 263.348C376.581 263.321 376.695 263.268 376.795 263.193C376.894 263.118 376.976 263.023 377.036 262.913C377.096 262.804 377.131 262.683 377.14 262.559C377.24 262.233 377.262 261.888 377.205 261.551C377.148 261.215 377.014 260.897 376.813 260.621Z" fill="#18216D"/>
<path d="M350.041 274.648C349.389 274.443 348.723 274.283 348.049 274.171C347.557 274.075 347.175 274.758 347.68 275.031C348.256 275.332 348.848 275.601 349.454 275.836C349.945 276.013 350.559 276.327 351.037 275.958C351.106 275.911 351.16 275.845 351.192 275.767C351.224 275.689 351.231 275.604 351.214 275.522C351.078 274.962 350.532 274.826 350.041 274.648Z" fill="#18216D"/>
<path d="M357.996 269.313C357.573 268.931 357.136 268.604 356.631 268.235C356.127 267.867 355.895 267.471 355.472 267.171C355.392 267.125 355.301 267.103 355.21 267.109C355.118 267.114 355.03 267.147 354.957 267.202C354.884 267.258 354.829 267.334 354.8 267.42C354.77 267.507 354.766 267.601 354.789 267.689C355.05 268.257 355.428 268.764 355.899 269.175C356.369 269.587 356.921 269.894 357.518 270.077C357.617 270.11 357.724 270.108 357.821 270.073C357.919 270.038 358.002 269.971 358.057 269.883C358.112 269.795 358.136 269.691 358.125 269.587C358.114 269.484 358.068 269.388 357.996 269.313Z" fill="#18216D"/>
<path d="M353.534 312.063C352.639 312.696 351.831 313.443 351.132 314.288C350.805 314.711 351.228 315.461 351.76 315.106C352.656 314.47 353.463 313.717 354.162 312.869C354.503 312.473 354.039 311.695 353.534 312.063Z" fill="#18216D"/>
<path d="M361.803 318.408C361.517 318.9 361.216 319.391 360.916 319.882C360.616 320.373 360.384 320.66 360.561 321.247C360.606 321.388 360.702 321.508 360.831 321.582C360.961 321.655 361.113 321.677 361.257 321.642C361.817 321.492 361.953 321.151 362.199 320.646L362.963 319.104C363.009 319.028 363.039 318.944 363.052 318.856C363.065 318.768 363.061 318.679 363.039 318.592C363.018 318.506 362.979 318.425 362.926 318.354C362.874 318.282 362.807 318.222 362.731 318.176C362.655 318.131 362.57 318.101 362.483 318.087C362.395 318.074 362.305 318.079 362.219 318.1C362.133 318.122 362.052 318.16 361.98 318.213C361.909 318.266 361.849 318.332 361.803 318.408Z" fill="#18216D"/>
<path d="M390.581 319.664C390.308 319.568 389.857 319.459 389.816 319.091C389.809 318.96 389.756 318.837 389.666 318.741C389.577 318.646 389.457 318.585 389.327 318.569C389.198 318.552 389.066 318.582 388.956 318.653C388.846 318.723 388.764 318.83 388.725 318.954C388.624 319.229 388.598 319.526 388.649 319.814C388.699 320.102 388.825 320.372 389.013 320.596C389.201 320.82 389.445 320.991 389.721 321.091C389.996 321.191 390.292 321.216 390.581 321.165C391.413 321.015 391.222 319.909 390.581 319.664Z" fill="#18216D"/>
<path d="M357.791 410.008C360.343 413.188 365.242 412.656 369.185 411.673C373.129 410.691 377.809 409.694 380.838 412.41C382.123 398.725 378.649 385.017 371.003 373.595C363.357 362.174 352.007 353.738 338.866 349.71C327.95 346.354 317.838 347.65 306.704 348.346C293.741 349.178 281.174 353.736 269.999 360.231C253.16 370.028 231.342 385.624 225.515 404.932" fill="#18216D"/>
<path d="M292.991 378.788C291.686 377.894 290.511 376.824 289.497 375.609C288.603 374.293 287.987 372.808 287.687 371.245C287.387 369.683 287.408 368.075 287.751 366.521C288.45 363.424 289.451 360.403 290.739 357.502C297.111 340.814 295.897 322.502 302.119 305.65C303.224 302.676 304.439 298.828 306.458 296.358C308.607 294.129 311.044 292.197 313.704 290.613C323.378 284.064 337.051 279.452 346.725 288.553C351.938 293.465 353.043 301.311 352.866 308.475C352.644 318.449 350.586 328.297 346.793 337.525C345.902 339.661 344.573 341.586 342.893 343.177C341.213 344.768 339.218 345.989 337.037 346.763C333.189 348.128 331.484 347.718 329.71 351.443C327.714 356.226 326.999 361.446 327.636 366.589C328.133 368.83 328.394 371.117 328.413 373.412C327.322 385.925 312.762 386.225 303.525 384.001C299.74 382.881 296.177 381.117 292.991 378.788Z" fill="white" stroke="#18216D" stroke-miterlimit="10"/>
<path d="M386.514 334.305C387.355 332.399 388.571 330.682 390.089 329.256C393.204 326.612 396.626 324.353 400.282 322.529C400.465 322.4 400.671 322.31 400.889 322.263C401.107 322.216 401.332 322.214 401.551 322.256C401.779 322.368 401.96 322.557 402.062 322.789C402.165 323.021 402.182 323.282 402.111 323.525C401.965 324.009 401.702 324.449 401.347 324.808L398.85 327.783C395.875 331.33 402.793 329.147 403.898 328.724C407.014 327.597 409.892 325.898 412.386 323.716C413.241 322.923 414.153 322.193 415.115 321.533C416.365 320.692 417.877 320.334 419.372 320.523C420.405 320.784 421.328 321.368 422.006 322.191C422.683 323.013 423.08 324.031 423.138 325.095C423.37 329.816 419.208 335.028 415.824 337.375C412.052 340.007 407.808 341.887 403.325 342.915C402.929 342.998 402.562 343.188 402.266 343.465C401.97 343.741 401.756 344.094 401.647 344.484L389.68 387.794C388.457 392.359 386.977 396.851 385.245 401.248C383.294 406.16 380.524 411.004 375.134 412.601C373.237 413.14 371.234 413.189 369.313 412.742C367.392 412.296 365.615 411.369 364.15 410.049C354.735 401.548 364.791 384.355 368.312 375.377C371.632 366.972 375.175 358.662 378.941 350.447C380.824 346.345 382.771 342.251 384.782 338.167C385.409 336.788 385.928 335.492 386.514 334.305Z" fill="white" stroke="#18216D" stroke-miterlimit="10"/>
<path d="M297.138 291.405C298.559 289.855 300.067 288.388 301.655 287.011C299.049 285.223 296.606 282.208 297.561 279.192C298.132 277.725 299.193 276.501 300.563 275.726C302.303 274.605 304.255 273.855 306.298 273.524C308.341 273.192 310.43 273.287 312.435 273.802C316.003 274.897 319.243 276.861 321.863 279.52C322.239 279.932 322.706 280.25 323.228 280.448C323.638 280.523 324.059 280.523 324.47 280.448L337.323 279.206C340.662 278.767 344.038 278.69 347.394 278.974C352.606 279.602 358.241 282.249 358.719 288.021C359.197 293.793 354.98 298.937 349.986 301.407C344.651 303.972 338.524 304.136 332.616 304.204C326.707 304.272 320.594 304.34 315.191 306.756C312.767 307.666 310.781 309.467 309.637 311.791C309.078 313.155 308.86 315.011 307.495 315.693C305.407 316.757 305.162 316.908 304.357 319.186C303.429 321.833 302.365 324.453 301.232 327.032C300.099 329.611 296.661 335.219 293.181 332.381C290.589 330.28 290.862 321.465 290.712 318.313C290.33 311.026 290.561 301.243 294.532 294.843C295.3 293.624 296.172 292.474 297.138 291.405Z" fill="#18216D"/>
<path d="M339.002 332.859C338.596 333.024 338.159 333.099 337.721 333.08C337.283 333.061 336.854 332.949 336.464 332.749C335.904 332.504 335.099 333.05 335.55 333.677C336.039 334.371 336.772 334.854 337.602 335.028C338.433 335.203 339.298 335.057 340.025 334.619C341.185 333.95 340.175 332.327 339.002 332.859Z" fill="#18216D"/>
<path d="M330.242 316.648C329.095 315.925 326.557 317.794 328.768 318.777C329.669 319.173 331.006 318.258 330.678 317.235C330.612 316.991 330.456 316.781 330.242 316.648Z" fill="#18216D"/>
<path d="M349.263 316.143C349.006 315.942 348.689 315.833 348.362 315.833C348.036 315.833 347.719 315.942 347.462 316.143C347.288 316.323 347.183 316.557 347.163 316.806C347.143 317.055 347.21 317.303 347.353 317.508C347.394 317.671 347.458 317.827 347.544 317.972C347.654 318.147 347.826 318.274 348.026 318.327C348.226 318.38 348.439 318.356 348.622 318.258C348.867 318.14 349.084 317.97 349.258 317.76C349.432 317.551 349.559 317.307 349.631 317.044C349.672 316.874 349.659 316.696 349.592 316.534C349.526 316.373 349.411 316.236 349.263 316.143Z" fill="#18216D"/>
<path d="M341.335 318.095C341.172 317.603 340.298 317.467 340.203 318.095C339.973 319.835 339.626 321.558 339.166 323.252C338.852 324.385 338.197 325.886 338.906 326.978C339.48 327.851 341.117 327.305 340.694 326.227C340.271 325.149 341.253 322.884 341.458 321.711C341.718 320.514 341.676 319.271 341.335 318.095Z" fill="#18216D"/>
<path d="M302.529 316.43C301.516 316.538 300.548 316.904 299.718 317.494C298.71 318.044 297.859 318.842 297.248 319.814C296.44 321.103 296.032 322.602 296.076 324.122C296.12 325.642 296.613 327.116 297.494 328.356C298.365 329.465 299.631 330.193 301.028 330.389C302.424 330.585 303.842 330.233 304.985 329.406C309.61 326.118 310.17 315.666 302.529 316.43Z" fill="white"/>
<path d="M303.647 320.96C303.192 320.998 302.752 321.142 302.362 321.378C301.971 321.615 301.641 321.939 301.396 322.325C301.098 322.707 300.913 323.166 300.862 323.648C300.811 324.131 300.897 324.617 301.109 325.054C301.179 325.19 301.3 325.293 301.445 325.342C301.591 325.39 301.749 325.38 301.887 325.313C302.256 325.122 302.174 324.603 302.201 324.249C302.207 323.762 302.362 323.29 302.645 322.894C302.928 322.499 303.325 322.2 303.784 322.038C304.33 321.82 304.248 320.892 303.647 320.96Z" fill="#18216D"/>
<path d="M309.951 341.619C307.1 339.64 303.484 335.328 303.784 331.358L303.402 331.249C302.164 330.96 300.961 330.539 299.813 329.993C299.977 330.075 299.813 336.024 299.936 336.679C300.199 339.047 300.697 341.383 301.423 343.652C302.297 346.381 304.48 354.336 308.764 351.839C310.838 350.638 312.858 349.383 314.891 348.1C315.969 347.418 317.02 346.736 318.098 346.04L318.452 345.835C315.46 344.776 312.606 343.36 309.951 341.619Z" fill="#18216D"/>
<path d="M398.167 329.093C398.126 329.005 398.055 328.934 397.967 328.894C397.879 328.853 397.779 328.845 397.686 328.872C397.592 328.898 397.511 328.956 397.457 329.037C397.403 329.117 397.379 329.214 397.389 329.311C397.534 330.266 397.487 331.24 397.253 332.176C397.019 333.113 396.601 333.994 396.025 334.769C395.697 335.247 396.393 335.71 396.789 335.356C397.62 334.57 398.196 333.553 398.442 332.436C398.687 331.319 398.592 330.154 398.167 329.093Z" fill="#18216D"/>
<path d="M401.77 337.621C399.995 337.204 398.132 337.391 396.475 338.153C395.074 338.675 393.91 339.689 393.201 341.005C393.168 341.087 393.167 341.177 393.195 341.26C393.224 341.343 393.281 341.413 393.357 341.457C393.433 341.502 393.522 341.518 393.608 341.502C393.694 341.487 393.773 341.441 393.828 341.373C394.807 340.082 396.242 339.213 397.84 338.944C399.199 338.873 400.545 338.644 401.852 338.262C402.152 338.112 402.029 337.73 401.77 337.621Z" fill="#18216D"/>
<path d="M432.458 244.943H219.593V396.404H432.458V244.943Z" stroke="#18216D" stroke-miterlimit="10"/>
<path d="M227.166 231.666H424.912C427.083 231.666 429.166 232.529 430.701 234.064C432.236 235.6 433.099 237.682 433.099 239.853V250.114H218.938V239.853C218.938 238.775 219.151 237.707 219.565 236.711C219.979 235.715 220.586 234.81 221.351 234.05C222.115 233.289 223.023 232.687 224.021 232.278C225.019 231.869 226.088 231.661 227.166 231.666Z" fill="#18216D"/>
<path d="M230.51 246.894C233.298 246.894 235.559 244.634 235.559 241.846C235.559 239.057 233.298 236.797 230.51 236.797C227.722 236.797 225.461 239.057 225.461 241.846C225.461 244.634 227.722 246.894 230.51 246.894Z" fill="white"/>
<path d="M254.157 241.614C254.199 242.608 253.946 243.593 253.428 244.443C252.911 245.294 252.153 245.972 251.251 246.392C250.348 246.812 249.342 246.955 248.358 246.803C247.374 246.651 246.457 246.211 245.724 245.538C244.99 244.865 244.472 243.99 244.236 243.023C243.999 242.056 244.054 241.041 244.395 240.106C244.735 239.17 245.345 238.357 246.147 237.768C246.95 237.179 247.909 236.841 248.904 236.797C250.238 236.741 251.541 237.217 252.525 238.12C253.51 239.023 254.097 240.279 254.157 241.614Z" fill="white"/>
<path d="M254.157 241.614C254.199 242.608 253.945 243.593 253.428 244.443C252.911 245.294 252.153 245.972 251.25 246.392C250.348 246.812 249.341 246.955 248.357 246.803C247.374 246.651 246.457 246.211 245.723 245.538C244.99 244.865 244.472 243.99 244.235 243.023C243.999 242.056 244.054 241.041 244.394 240.106C244.735 239.17 245.345 238.357 246.147 237.768C246.95 237.179 247.909 236.841 248.903 236.797C250.238 236.741 251.54 237.217 252.525 238.12C253.51 239.023 254.096 240.279 254.157 241.614Z" fill="white"/>
<path d="M243.254 235.705L254.989 247.986" stroke="#18216D" stroke-miterlimit="10"/>
<path d="M242.981 247.713L255.262 235.964" stroke="#18216D" stroke-miterlimit="10"/>
<path d="M411.458 224.421L428.105 203.898L434.655 224.421L449.051 203.216L455.805 224.421L469.955 203.557L476.614 224.421L490.191 204.417" stroke="#18216D" stroke-miterlimit="10"/>
<path d="M182.22 384.069L198.867 363.547L205.416 384.069L219.812 362.864L226.566 384.069L240.73 363.205L247.375 384.069" stroke="#00ECD0" stroke-width="2" stroke-miterlimit="10"/>
<path d="M283.057 478.343C283.427 477.293 284.048 476.349 284.867 475.594C285.685 474.839 286.676 474.296 287.753 474.012C288.829 473.728 289.959 473.712 291.043 473.965C292.128 474.218 293.134 474.733 293.973 475.464L294.396 475.819C295.271 476.568 296.321 477.084 297.448 477.318C298.576 477.553 299.745 477.498 300.845 477.158C301.946 476.819 302.943 476.207 303.743 475.379C304.543 474.55 305.121 473.533 305.422 472.421L307.591 464.125C307.89 463.012 308.467 461.993 309.266 461.163C310.066 460.333 311.062 459.719 312.163 459.379C313.264 459.038 314.433 458.982 315.562 459.215C316.69 459.449 317.741 459.964 318.617 460.714L318.876 460.946C319.75 461.695 320.8 462.211 321.928 462.445C323.056 462.679 324.224 462.624 325.325 462.285C326.425 461.946 327.422 461.334 328.222 460.505C329.023 459.677 329.6 458.66 329.901 457.548L331.948 449.729C332.247 448.616 332.823 447.598 333.623 446.768C334.422 445.938 335.419 445.324 336.52 444.983C337.621 444.643 338.79 444.586 339.918 444.82C341.047 445.053 342.098 445.569 342.973 446.318C343.848 447.067 344.898 447.583 346.025 447.818C347.153 448.052 348.321 447.997 349.422 447.658C350.523 447.318 351.52 446.706 352.32 445.878C353.12 445.049 353.697 444.032 353.998 442.92" stroke="#18216D" stroke-miterlimit="10"/>
<path d="M1 434.849C1.36979 433.799 1.99102 432.855 2.80948 432.1C3.62793 431.345 4.61873 430.802 5.69539 430.518C6.77206 430.234 7.90186 430.218 8.9862 430.471C10.0705 430.724 11.0764 431.239 11.9161 431.97L12.3391 432.325C13.2136 433.075 14.2636 433.59 15.3913 433.825C16.5189 434.059 17.6875 434.004 18.7881 433.665C19.8887 433.326 20.8856 432.713 21.6858 431.885C22.486 431.057 23.0634 430.039 23.3644 428.927L25.534 420.631C25.8332 419.518 26.4094 418.499 27.2089 417.67C28.0084 416.84 29.005 416.226 30.1059 415.885C31.2067 415.544 32.3759 415.488 33.5044 415.722C34.6329 415.955 35.6839 416.471 36.5593 417.22L36.8185 417.452C37.693 418.201 38.743 418.717 39.8706 418.951C40.9983 419.186 42.1669 419.131 43.2675 418.791C44.3681 418.452 45.365 417.84 46.1652 417.012C46.9654 416.183 47.5428 415.166 47.8438 414.054L49.8906 406.236" stroke="#00ECD0" stroke-width="2" stroke-miterlimit="10"/>
<path d="M399.559 1.43164C400.596 1.04411 401.712 0.914773 402.81 1.05478C403.909 1.19478 404.956 1.59993 405.863 2.23525C406.769 2.87057 407.508 3.71698 408.014 4.70142C408.521 5.68586 408.78 6.77876 408.77 7.8858V8.44525C408.761 9.59629 409.044 10.7308 409.592 11.7431C410.14 12.7555 410.935 13.6127 411.903 14.2351C412.872 14.8575 413.982 15.2248 415.13 15.3028C416.278 15.3807 417.428 15.1669 418.472 14.6811L426.222 10.9832C427.266 10.4975 428.415 10.2836 429.563 10.3616C430.712 10.4396 431.822 10.8068 432.79 11.4292C433.759 12.0516 434.554 12.9089 435.101 13.9212C435.649 14.9335 435.932 16.068 435.924 17.2191V17.5875C435.915 18.7385 436.198 19.873 436.746 20.8854C437.294 21.8977 438.089 22.755 439.057 23.3774C440.025 23.9998 441.135 24.367 442.284 24.445C443.432 24.523 444.582 24.3091 445.625 23.8233L452.926 20.3438C453.97 19.855 455.121 19.6386 456.271 19.7151C457.421 19.7916 458.534 20.1583 459.504 20.781C460.474 21.4038 461.271 22.2623 461.819 23.2763C462.368 24.2903 462.65 25.4268 462.641 26.5797V26.5797C462.633 27.7289 462.916 28.8614 463.464 29.8721C464.011 30.8827 464.804 31.7388 465.771 32.3608C466.737 32.9828 467.845 33.3507 468.991 33.4301C470.138 33.5096 471.286 33.2982 472.329 32.8155" stroke="#18216D" stroke-miterlimit="10"/>
<path d="M473.694 327.578C471.593 325.13 469.994 322.293 468.99 319.227C467.986 316.162 467.595 312.928 467.84 309.712C468.085 306.496 468.962 303.359 470.419 300.481C471.876 297.603 473.886 295.041 476.334 292.94C481.278 288.697 487.704 286.591 494.2 287.086C500.696 287.581 506.729 290.637 510.972 295.58" stroke="#00ECD0" stroke-width="2" stroke-miterlimit="10"/>
<path d="M676.707 39.5835C683.866 39.5835 689.669 33.7798 689.669 26.6206C689.669 19.4614 683.866 13.6577 676.707 13.6577C669.547 13.6577 663.744 19.4614 663.744 26.6206C663.744 33.7798 669.547 39.5835 676.707 39.5835Z" fill="#005FEC"/>
<path d="M712.961 377.396C716.799 377.396 720.599 378.152 724.144 379.621C727.69 381.09 730.911 383.244 733.624 385.958C736.337 388.672 738.488 391.894 739.956 395.44C741.423 398.986 742.177 402.787 742.176 406.624" fill="white"/>
<path d="M712.961 377.396C716.799 377.396 720.599 378.152 724.144 379.621C727.69 381.09 730.911 383.244 733.624 385.958C736.337 388.672 738.488 391.894 739.956 395.44C741.423 398.986 742.177 402.787 742.176 406.624" stroke="#18216D" stroke-miterlimit="10"/>
<path d="M730.605 4.10609L689.669 45.0415" stroke="#18216D" stroke-miterlimit="10"/>
<rect x="255.371" y="179.433" width="177.387" height="23.1968" fill="white"/>
<rect x="222.623" y="397.073" width="169.2" height="28.6548" fill="white"/>
<rect x="490.068" y="231.966" width="222.416" height="42.3" fill="white"/>
<path d="M678.084 261.317L702.959 240.808L709.495 261.317L731.396 240.126L738.15 261.317L759.696 240.467L766.341 261.317L787 241.313" stroke="#00ECD0" stroke-width="2" stroke-miterlimit="10"/>
<path d="M564.816 254.495L523.88 295.43" stroke="#18216D" stroke-miterlimit="10"/>
<path d="M553.899 273.598L512.964 314.533" stroke="#18216D" stroke-miterlimit="10"/>
</svg>
